<svg xmlns="http://www.w3.org/2000/svg" width="113.639" height="93.307" viewBox="0 0 113.639 93.307">
  <g id="Group_269" data-name="Group 269" transform="translate(-890.829 -2999)">
    <g id="Group_61" data-name="Group 61" transform="translate(0 -26.766)">
      <path id="Path_47" data-name="Path 47" d="M922.333,3078.058a41.068,41.068,0,1,1,41.113,41.015A41.006,41.006,0,0,1,922.333,3078.058Zm5.744-.269a35.327,35.327,0,1,0,35.669-35.112A35.4,35.4,0,0,0,928.077,3077.789Z" fill="#0091fe"/>
      <path id="Path_48" data-name="Path 48" d="M971.33,3056.743c5.241,1.091,8.945,3.507,9.661,8.854.7,5.243-1.8,8.812-6.829,11.228,6.2,1.927,9.065,6.021,8.245,12.117-.823,6.124-5.06,9.1-10.969,10.288v6.019H965.5v-5.587h-4.046v5.621H955.49v-5.719h-9.9v-5.692c.153-.089.264-.206.383-.216,3.946-.32,4.023-.393,4.026-4.315q.009-11.168,0-22.337c0-4.213-.076-4.287-4.386-4.592v-5.78h9.773v-5.762h5.973v5.558h4.117v-5.586h5.852Zm-11.809,23.432c0,3.933-.053,7.495.061,11.051a1.947,1.947,0,0,0,1.323,1.37,41.835,41.835,0,0,0,7.449-.387c2.666-.468,4.25-3.091,4.2-6.157-.051-2.885-1.434-4.932-4.24-5.364C965.482,3080.253,962.575,3080.331,959.521,3080.175Zm.016-6.007c3-.223,5.832-.235,8.591-.7a4.642,4.642,0,0,0,3.716-4.908c-.019-2.291-1.179-4.276-3.236-4.586-2.954-.445-5.972-.469-9.071-.68Z" fill="#0091fe"/>
    </g>
    <path id="Icon_awesome-arrow-left" data-name="Icon awesome-arrow-left" d="M18.105,31.3l-1.561,1.561a1.681,1.681,0,0,1-2.384,0L.492,19.2a1.681,1.681,0,0,1,0-2.384L14.161,3.143a1.681,1.681,0,0,1,2.384,0L18.105,4.7a1.689,1.689,0,0,1-.028,2.412L9.6,15.188H29.812A1.683,1.683,0,0,1,31.5,16.875v2.25a1.683,1.683,0,0,1-1.687,1.688H9.6l8.473,8.072A1.677,1.677,0,0,1,18.105,31.3Z" transform="translate(890.833 2996.353)" fill="#0091fe"/>
  </g>
</svg>
