<svg xmlns="http://www.w3.org/2000/svg" width="105.733" height="82.126" viewBox="0 0 105.733 82.126">
  <g id="Group_65" data-name="Group 65" transform="translate(-1426.78 -3272.554)">
    <path id="Path_59" data-name="Path 59" d="M1520.25,3338.386c1.385,0,2.835-.035,4.283.006a8.134,8.134,0,0,1-.109,16.267q-23.9.054-47.807.01a11.9,11.9,0,0,1-7.1-2.473c-6.531-4.736-13.091-9.433-19.588-14.214a9.578,9.578,0,0,0-6.094-1.975c-3.072.06-6.145.031-9.218.01-5.058-.033-7.828-2.8-7.833-7.829q-.012-9.84,0-19.68c.008-4.927,2.806-7.7,7.773-7.7,9.218-.006,18.436.039,27.653-.019a14.621,14.621,0,0,1,11.452,5.059q9.039,9.936,18.243,19.724a3.457,3.457,0,0,0,2.243.973c5.987.079,11.977,0,17.965.058,4.869.043,8.311,3.1,8.6,7.679A23.077,23.077,0,0,1,1520.25,3338.386Zm-76.919-32.892v25.659c6.277.824,6.277.824,11.56,4.65,5.649,4.091,11.337,8.13,16.926,12.3a10.077,10.077,0,0,0,6.375,2.042c14.9-.043,29.79-.021,44.684-.024a14.661,14.661,0,0,0,1.716-.052,3.435,3.435,0,0,0,3.02-4.385c-.464-1.873-1.7-2.709-4.157-2.711q-16.951-.016-33.9,0a8.179,8.179,0,0,1-6.344-2.492q-10.616-11.46-21.148-23a2.363,2.363,0,0,1,.041-3.487c.978-.893,2.188-.795,3.324.305.523.507,1,1.059,1.5,1.594q9.432,10.213,18.874,20.419a7.864,7.864,0,0,0,1.908,1.574,3.256,3.256,0,0,0,3.681-.248,3.1,3.1,0,0,0,1.326-3.426,6.493,6.493,0,0,0-1.535-2.459c-6.929-7.564-13.926-15.065-20.831-22.651a10.379,10.379,0,0,0-8.257-3.64c-5.727.076-11.457.021-17.186.021Zm-4.89.042c-1.745,0-3.351-.085-4.944.027a2.041,2.041,0,0,0-1.99,2.2c-.029,7.08-.064,14.161.059,21.239a2.768,2.768,0,0,0,1.619,2.1,30.366,30.366,0,0,0,5.256.1Zm58.688,32.831c5.091,0,10.291.021,15.492-.013a3.284,3.284,0,0,0,3.159-2.16,2.976,2.976,0,0,0-.6-3.6,5.748,5.748,0,0,0-3.2-1.23c-4.68-.131-9.366-.06-14.05-.048a3.644,3.644,0,0,0-.8.117Z" fill="#0091fe"/>
    <path id="Path_60" data-name="Path 60" d="M1532.513,3296.031a23.478,23.478,0,1,1-23.437-23.477A23.588,23.588,0,0,1,1532.513,3296.031Zm-21.122-18.411c0,1.03.064,1.958-.016,2.873a2.171,2.171,0,0,0,1.45,2.5,7.476,7.476,0,0,1,4.36,6.391c.177,1.877-.571,2.964-2.024,3.105-1.488.146-2.363-.71-2.651-2.593a3.331,3.331,0,0,0-3.632-3.076,3.491,3.491,0,0,0-.258,6.953,23.083,23.083,0,0,1,2.766.439,7.978,7.978,0,0,1,5.791,6.837,8.178,8.178,0,0,1-4.5,8.375c-.492.259-1.173.721-1.223,1.153a36.326,36.326,0,0,0-.059,4.152c8.817-.571,16.267-8.913,16.407-18.118C1527.954,3286.951,1520.8,3278.534,1511.391,3277.62Zm-4.712,36.867c0-1.031-.079-2.066.021-3.084a2.083,2.083,0,0,0-1.437-2.355,7.561,7.561,0,0,1-4.4-6.852,2.259,2.259,0,0,1,2.028-2.656c1.391-.149,2.348.683,2.645,2.266a6.4,6.4,0,0,0,.418,1.643,3.477,3.477,0,0,0,4.107,1.739,3.529,3.529,0,0,0,2.444-3.734,3.368,3.368,0,0,0-3.311-3.111c-4.513-.434-7.466-2.8-8.224-6.577-.776-3.873.95-7.1,4.934-9.3.314-.173.712-.544.728-.843.078-1.37.035-2.747.035-4.135-9.413.879-16.564,9.263-16.4,18.941C1490.42,3305.632,1497.9,3313.962,1506.679,3314.487Z" fill="#0091fe"/>
  </g>
</svg>
