<svg xmlns="http://www.w3.org/2000/svg" width="88.007" height="86.427" viewBox="0 0 88.007 86.427">
  <g id="Group_62" data-name="Group 62" transform="translate(-1446.718 -3036.936)">
    <path id="Path_49" data-name="Path 49" d="M1446.718,3048.857a70.721,70.721,0,0,0,18.031-1.707,54.539,54.539,0,0,0,19.929-9.516,2.444,2.444,0,0,1,3.246-.157c3.617,2.178,7.343,4.175,11.16,6.318l-3,5.061c-2.854-1.626-5.689-3.3-8.6-4.845a2.525,2.525,0,0,0-2.168-.087c-9.454,6.947-19.942,10.546-31.74,10.065a3.106,3.106,0,0,0-.611.1,3.173,3.173,0,0,0-.192.739c-.185,13.875,1.272,27.441,7.858,39.972a45.317,45.317,0,0,0,24.021,21.584,5.037,5.037,0,0,0,3.472-.052c14.711-6.183,23.939-17.258,28.576-32.362.186-.606.373-1.212.547-1.779l5.849-.615c-.566,1.884-1.041,3.595-1.593,5.281-5.614,17.155-16.673,29.313-33.4,36.187a5.122,5.122,0,0,1-3.483.021c-17.937-7.054-28.686-20.487-33.957-38.673a97.707,97.707,0,0,1-3.623-22.489,19.87,19.87,0,0,0-.323-2.1Z" fill="#0091fe"/>
    <path id="Path_50" data-name="Path 50" d="M1534.725,3059.026c-.293,1.317-.539,2.646-.887,3.948-2.133,7.975-9.261,12.611-18.393,11.988-6.693-.457-13.354-6.92-14.195-14.059-1.239-10.519,5.933-18.972,16.23-19.247a16.3,16.3,0,0,1,16.78,14.54,10.063,10.063,0,0,0,.465,1.657Zm-19.519,8.588,12.163-18.361c-3.138-.94-4.313-.615-6.365,1.982-1.962,2.484-3.887,5-5.787,7.443a15.441,15.441,0,0,0-3.319-1.969,8.648,8.648,0,0,0-3.5.059c-.142.019-.408,1.427-.175,1.6C1511.438,3060.781,1513.482,3064.062,1515.206,3067.614Z" fill="#0091fe"/>
    <path id="Path_51" data-name="Path 51" d="M1496.133,3074.584c2.189-.177,2.671,1,2.636,2.892-.088,4.814-.021,9.631-.033,14.447-.006,2.158-.473,2.636-2.633,2.641-6.508.014-13.016-.018-19.523.02-1.781.01-2.583-.609-2.547-2.521.1-4.944.081-9.892.006-14.836-.027-1.76.465-2.8,2.694-2.584-.3-4.361.463-8.415,4.383-10.773a11.406,11.406,0,0,1,6.043-1.6C1492.7,3062.523,1495.617,3066.675,1496.133,3074.584Zm-3.338-.034a7.492,7.492,0,0,0-2.587-8.137,6.493,6.493,0,0,0-7.138-.392c-2.776,1.682-3.9,4.588-3.24,8.529Zm-3.443,15.266c-.3-.9-.527-1.569-.751-2.234-.245-.727-.491-1.453-.729-2.159,1.84-2.082,2.045-3.716.666-5.114a3.008,3.008,0,0,0-4.344-.065c-1.52,1.466-1.322,2.966.694,5.324l-1.5,4.248Z" fill="#0091fe"/>
  </g>
</svg>
