<svg xmlns="http://www.w3.org/2000/svg" width="44.539" height="92.969" viewBox="0 0 44.539 92.969">
  <g id="Group_63" data-name="Group 63" transform="translate(-410.057 -3267.285)">
    <path id="Path_52" data-name="Path 52" d="M433.563,3267.285c1.363,2.361,2.605,4.506,3.839,6.656.37.644.743,1.289,1.071,1.956,1.506,3.065,3.142,6.077,4.452,9.225a105.494,105.494,0,0,1,3.754,10.491,36.442,36.442,0,0,1,1.7,11.93,49.62,49.62,0,0,1-6.174,22.531,12.569,12.569,0,0,1-1.545,2.085,1.3,1.3,0,0,1-.911.277c-1.863-.033-3.725-.135-5.589-.161-2.853-.04-5.707-.067-8.561-.038a2.461,2.461,0,0,1-2.419-1.311,35.985,35.985,0,0,1-4.289-10.75c-.622-2.937-1.242-5.891-1.574-8.869a38.145,38.145,0,0,1,2.212-16.562,97.625,97.625,0,0,1,7.394-16.5C428.974,3274.594,431.258,3271.073,433.563,3267.285Zm-7.63,34.4a6.961,6.961,0,1,0,13.894-.6,6.96,6.96,0,0,0-13.894.6Z" fill="#0091fe"/>
    <path id="Path_53" data-name="Path 53" d="M427.571,3334.685c-.129,1.852-.248,3.552-.365,5.252a15.22,15.22,0,0,0,1.206,6.609,11.321,11.321,0,0,0,3.453,4.635c2.568-1.74,3.782-4.3,4.6-7.13a24.192,24.192,0,0,0,.539-7.786,7.642,7.642,0,0,0-.315-1.36,15.641,15.641,0,0,1,2.041.03,1.031,1.031,0,0,1,.659.627,25.018,25.018,0,0,1,1.222,4.456,32.459,32.459,0,0,1,.17,6.377,17.258,17.258,0,0,1-5.289,10.633c-1.136,1.171-2.468,2.152-3.717,3.226a20.037,20.037,0,0,1-7.894-10.516,20.669,20.669,0,0,1,1.166-14.53.958.958,0,0,1,.641-.5A16.512,16.512,0,0,1,427.571,3334.685Z" fill="#0091fe"/>
    <path id="Path_54" data-name="Path 54" d="M420.735,3332.12l-10.678-.3a16.751,16.751,0,0,0,.13-3.465c-.347-2.055.735-3.5,1.724-5.034,1.16-1.8,2.3-3.618,3.568-5.62A46.3,46.3,0,0,0,420.735,3332.12Z" fill="#0091fe"/>
    <path id="Path_55" data-name="Path 55" d="M449.65,3318.5c1.669,2.845,3.239,5.483,4.759,8.15a2.482,2.482,0,0,1,.181,1.259c-.061,1.581-.166,3.161-.254,4.744h-10.66C446.746,3328.291,448.306,3323.54,449.65,3318.5Z" fill="#0091fe"/>
  </g>
</svg>
