<svg xmlns="http://www.w3.org/2000/svg" width="70.661" height="86.536" viewBox="0 0 70.661 86.536">
  <g id="Group_64" data-name="Group 64" transform="translate(-928.07 -3264.166)">
    <path id="Path_56" data-name="Path 56" d="M961.726,3350.7q-14.481,0-28.961,0a4.348,4.348,0,0,1-4.336-2.525,4.291,4.291,0,0,1-.358-1.886q0-25.088,0-50.175c0-3.014,1.678-4.631,4.724-4.63,4.733,0,9.467-.007,14.2,0a4.066,4.066,0,0,0,1.607-.317q15.9-6.607,31.815-13.2c1.191-.494,2.4-.959,3.567-1.5.586-.269.817-.165,1.065.443,1.854,4.55,3.758,9.08,5.623,13.625a1.388,1.388,0,0,0,1.292,1.038,4.026,4.026,0,0,1,3.469,3.949c.051,3.966.008,7.932.031,11.9,0,.58-.271.646-.733.64-1.321-.016-2.644-.037-3.965,0-.609.018-.785-.177-.777-.782.033-2.336.018-4.673.012-7.01-.007-2.651-1.374-4.03-4.043-4.031q-24.21-.009-48.422,0c-2.643,0-4.044,1.415-4.044,4.038q0,20.706,0,41.412c0,2.88,1.356,4.239,4.233,4.239q24.027,0,48.053,0a4.071,4.071,0,0,0,3.336-1.233,3.684,3.684,0,0,0,.888-2.548c-.006-2.737.024-5.473-.014-8.209-.01-.69.175-.9.871-.874,1.32.055,2.644.029,3.965.005.481-.009.637.156.636.637-.015,4.273.028,8.547-.024,12.82a4.148,4.148,0,0,1-4.014,4.144c-.337.025-.676.017-1.014.017Z" fill="#0091fe"/>
    <path id="Path_57" data-name="Path 57" d="M985.548,3310.189c2.981,0,5.962-.007,8.943,0a3.865,3.865,0,0,1,4.175,3.956q.129,6.406.01,12.817a3.892,3.892,0,0,1-4.232,4q-8.941,0-17.882,0a3.934,3.934,0,0,1-4.146-4.092q-.029-6.27,0-12.541a3.956,3.956,0,0,1,4.189-4.142C979.586,3310.183,982.567,3310.189,985.548,3310.189Zm-8.695,10.281a3.892,3.892,0,1,0,3.889-3.859A3.889,3.889,0,0,0,976.853,3320.47Z" fill="#0091fe"/>
    <path id="Path_58" data-name="Path 58" d="M933.579,3284.476a3.354,3.354,0,0,1,2.323-3.3q6.252-2.592,12.506-5.179,13.786-5.712,27.575-11.419c2.293-.947,3.815-.28,4.775,2.026.024.057.061.108.08.166.306.923,1.251,1.936.894,2.679-.313.651-1.61.844-2.486,1.207q-18.673,7.746-37.352,15.483c-1.985.823-3.975,1.636-5.951,2.484-.489.21-.771.208-.97-.357A22.358,22.358,0,0,1,933.579,3284.476Z" fill="#0091fe"/>
  </g>
</svg>
