<svg xmlns="http://www.w3.org/2000/svg" width="113.64" height="93.307" viewBox="0 0 113.64 93.307">
  <g id="Group_270" data-name="Group 270" transform="translate(-359.756 -2999)">
    <g id="Group_60" data-name="Group 60" transform="translate(0 -26.766)">
      <path id="Path_45" data-name="Path 45" d="M391.259,3078.058a41.068,41.068,0,1,1,41.114,41.015A41.007,41.007,0,0,1,391.259,3078.058Zm5.744-.269a35.327,35.327,0,1,0,35.67-35.112A35.4,35.4,0,0,0,397,3077.789Z" fill="#0091fe"/>
      <path id="Path_46" data-name="Path 46" d="M440.257,3056.743c5.241,1.091,8.944,3.507,9.66,8.854.7,5.243-1.8,8.812-6.828,11.228,6.2,1.927,9.064,6.021,8.245,12.117-.823,6.124-5.06,9.1-10.97,10.288v6.019h-5.941v-5.587h-4.045v5.621h-5.962v-5.719h-9.9v-5.692c.152-.089.263-.206.382-.216,3.946-.32,4.023-.393,4.026-4.315q.009-11.168,0-22.337c0-4.213-.076-4.287-4.386-4.592v-5.78h9.773v-5.762h5.973v5.558H434.4v-5.586h5.853Zm-11.81,23.432c0,3.933-.053,7.495.062,11.051a1.945,1.945,0,0,0,1.322,1.37,41.83,41.83,0,0,0,7.449-.387c2.667-.468,4.25-3.091,4.2-6.157-.05-2.885-1.434-4.932-4.24-5.364C434.409,3080.253,431.5,3080.331,428.447,3080.175Zm.016-6.007c3-.223,5.833-.235,8.591-.7a4.643,4.643,0,0,0,3.717-4.908c-.02-2.291-1.179-4.276-3.237-4.586-2.954-.445-5.971-.469-9.071-.68Z" fill="#0091fe"/>
    </g>
    <path id="Icon_awesome-arrow-left" data-name="Icon awesome-arrow-left" d="M13.391,31.3l1.561,1.561a1.681,1.681,0,0,0,2.384,0L31,19.2a1.681,1.681,0,0,0,0-2.384L17.335,3.143a1.681,1.681,0,0,0-2.384,0L13.391,4.7a1.689,1.689,0,0,0,.028,2.412l8.473,8.072H1.684A1.683,1.683,0,0,0,0,16.875v2.25a1.683,1.683,0,0,0,1.687,1.688H21.892l-8.473,8.072A1.677,1.677,0,0,0,13.391,31.3Z" transform="translate(359.759 2996.353)" fill="#0091fe"/>
  </g>
</svg>
