<svg xmlns="http://www.w3.org/2000/svg" width="374.668" height="63.283" viewBox="0 0 374.668 63.283">
  <g id="Group_58" data-name="Group 58" transform="translate(-212.685 -6140.769)">
    <path id="Path_29" data-name="Path 29" d="M259.9,6172.851v.786c0-.268.009-.527.018-.786Z" fill="#30344f"/>
    <path id="Path_30" data-name="Path 30" d="M259.915,6172.851c-.009.259-.018.518-.018.786v-.786Z" fill="#30344f"/>
    <path id="Path_31" data-name="Path 31" d="M286.172,6173.635a7.689,7.689,0,1,1-7.683-7.683,7.565,7.565,0,0,1,2.866.555A7.677,7.677,0,0,1,286.172,6173.635Z" fill="#fff"/>
    <path id="Path_32" data-name="Path 32" d="M259.915,6172.851c-.009.259-.018.518-.018.786v-.786Z" fill="#30344f"/>
    <g id="Group_56" data-name="Group 56">
      <g id="Group_55" data-name="Group 55">
        <path id="Path_33" data-name="Path 33" d="M221.644,6155.967a2.5,2.5,0,0,1-.73,1.766,2.464,2.464,0,0,1-1.766.73h-3.967a2.5,2.5,0,1,1,0-4.992h3.967A2.491,2.491,0,0,1,221.644,6155.967Z" fill="#3574ff"/>
        <path id="Path_34" data-name="Path 34" d="M230.556,6145.455a2.494,2.494,0,0,1,2.5-2.5h3.966a2.5,2.5,0,1,1,0,4.992h-3.966A2.5,2.5,0,0,1,230.556,6145.455Z" fill="#3574ff"/>
        <path id="Path_35" data-name="Path 35" d="M309.124,6173.506a30.575,30.575,0,0,1-38.8,29.418v-12.758a18.593,18.593,0,1,0-7.3-26.84,18.758,18.758,0,0,0-3.023,9.394h0l-.009,25.018a30.515,30.515,0,0,1-11.668-20.026H234.726a2.5,2.5,0,1,1,0-4.992h13.313a29.9,29.9,0,0,1,.435-4.4h-3.19a2.5,2.5,0,1,1,0-4.993h4.494a29.2,29.2,0,0,1,2.209-4.863H227.413a2.5,2.5,0,1,1,0-4.992h28.106a30.734,30.734,0,0,1,6.315-5.52h-16.55a2.5,2.5,0,1,1,0-4.992h33.293c.971,0,1.923.046,2.866.138A30.548,30.548,0,0,1,309.124,6173.506Z" fill="#3574ff"/>
        <rect id="Rectangle_44" data-name="Rectangle 44" width="8.963" height="4.993" rx="2.496" transform="translate(230.553 6163.324)" fill="#3574ff"/>
        <rect id="Rectangle_45" data-name="Rectangle 45" width="8.963" height="4.993" rx="2.496" transform="translate(219.996 6172.718)" fill="#3574ff"/>
      </g>
    </g>
    <g id="Group_57" data-name="Group 57">
      <path id="Path_36" data-name="Path 36" d="M327.642,6155.4v3.919a16.8,16.8,0,0,1,5.226-3.625,15.054,15.054,0,0,1,6.009-1.208,15.514,15.514,0,0,1,11.823,5.258q4.866,5.259,4.866,13.488a18.616,18.616,0,0,1-5.029,13.277,15.841,15.841,0,0,1-11.921,5.34,14.809,14.809,0,0,1-5.715-1.1,17.415,17.415,0,0,1-5.259-3.576v16.755h-8.85V6155.4Zm9.374,7.316a9.311,9.311,0,0,0-6.99,2.874,10.363,10.363,0,0,0-2.775,7.512,10.668,10.668,0,0,0,2.775,7.659,9.237,9.237,0,0,0,6.99,2.923,9.059,9.059,0,0,0,6.874-2.973,11.642,11.642,0,0,0,.05-15.072A9.1,9.1,0,0,0,337.016,6162.716Z" fill="#fff"/>
      <path id="Path_37" data-name="Path 37" d="M389.173,6155.4h8.917v35.534h-8.917v-3.756a17.477,17.477,0,0,1-5.235,3.576,14.662,14.662,0,0,1-5.693,1.1,15.815,15.815,0,0,1-11.907-5.34,18.629,18.629,0,0,1-5.023-13.277q0-8.229,4.86-13.488a15.488,15.488,0,0,1,11.81-5.258,15.022,15.022,0,0,1,6,1.208,16.4,16.4,0,0,1,5.187,3.625Zm-9.372,7.316a9.007,9.007,0,0,0-6.868,2.923,10.533,10.533,0,0,0-2.735,7.495,10.639,10.639,0,0,0,2.783,7.577,9.016,9.016,0,0,0,6.852,2.973,9.187,9.187,0,0,0,6.965-2.923,10.685,10.685,0,0,0,2.767-7.659,10.378,10.378,0,0,0-2.767-7.512A9.3,9.3,0,0,0,379.8,6162.716Z" fill="#fff"/>
      <path id="Path_38" data-name="Path 38" d="M403.161,6155.4h9.111l9.23,22.3,10.185-22.3h9.138l-22.255,48.533h-9.209l7.307-15.651Z" fill="#fff"/>
      <path id="Path_39" data-name="Path 39" d="M444.923,6155.4h8.916v35.534h-8.916Z" fill="#fff"/>
      <path id="Path_40" data-name="Path 40" d="M470.79,6141.683v17.636a16.8,16.8,0,0,1,5.225-3.625,15.062,15.062,0,0,1,6.01-1.208,15.515,15.515,0,0,1,11.823,5.258q4.866,5.259,4.866,13.488a18.617,18.617,0,0,1-5.03,13.277,15.841,15.841,0,0,1-11.921,5.34,14.816,14.816,0,0,1-5.715-1.1,17.423,17.423,0,0,1-5.258-3.576v3.756h-8.851v-49.251Zm9.373,21.033a9.307,9.307,0,0,0-6.989,2.874,10.359,10.359,0,0,0-2.776,7.512,10.665,10.665,0,0,0,2.776,7.659,9.233,9.233,0,0,0,6.989,2.923,9.061,9.061,0,0,0,6.875-2.973,10.62,10.62,0,0,0,2.793-7.577,10.513,10.513,0,0,0-2.744-7.495A9.092,9.092,0,0,0,480.163,6162.716Z" fill="#fff"/>
      <path id="Path_41" data-name="Path 41" d="M505.115,6141.683h8.916v49.251h-8.916Z" fill="#fff"/>
      <path id="Path_42" data-name="Path 42" d="M557.73,6175.747H529.088a9.527,9.527,0,0,0,3.315,6.026,10.4,10.4,0,0,0,6.875,2.237,11.881,11.881,0,0,0,8.589-3.495l7.512,3.528a17.727,17.727,0,0,1-6.728,5.9,21.04,21.04,0,0,1-9.308,1.911q-8.361,0-13.619-5.275a17.949,17.949,0,0,1-5.259-13.211,18.56,18.56,0,0,1,5.242-13.5,17.609,17.609,0,0,1,13.146-5.372q8.392,0,13.652,5.372t5.258,14.191Zm-8.916-7.022a8.944,8.944,0,0,0-3.484-4.833,10.1,10.1,0,0,0-6.036-1.862,10.676,10.676,0,0,0-6.543,2.09,11.65,11.65,0,0,0-3.271,4.6Z" fill="#fff"/>
      <path id="Path_43" data-name="Path 43" d="M586.7,6160.365l-5.52,5.519q-3.364-3.331-6.107-3.331a3.843,3.843,0,0,0-2.352.637,1.913,1.913,0,0,0-.849,1.583,1.947,1.947,0,0,0,.539,1.323,10.05,10.05,0,0,0,2.662,1.65l3.266,1.633q5.16,2.547,7.087,5.192a10.819,10.819,0,0,1-1.551,14.11q-3.478,3.168-9.325,3.168a14.819,14.819,0,0,1-12.41-6.075l5.486-5.977a12.661,12.661,0,0,0,3.674,2.956,8.14,8.14,0,0,0,3.74,1.127,4.45,4.45,0,0,0,2.841-.85,2.458,2.458,0,0,0,1.078-1.959q0-2.057-3.886-4.017l-3.005-1.5q-8.622-4.343-8.622-10.875a9.438,9.438,0,0,1,3.249-7.2,11.8,11.8,0,0,1,8.313-2.988,14.415,14.415,0,0,1,11.692,5.879Z" fill="#fff"/>
    </g>
    <path id="Path_44" data-name="Path 44" d="M449.382,6140.769a5.453,5.453,0,0,1,4.021,1.7,5.642,5.642,0,0,1,1.677,4.115,5.574,5.574,0,0,1-1.66,4.066,5.387,5.387,0,0,1-3.973,1.682,5.465,5.465,0,0,1-4.055-1.714,5.736,5.736,0,0,1-1.677-4.164,5.678,5.678,0,0,1,5.667-5.683Z" fill="#3574ff"/>
  </g>
</svg>
