<svg xmlns="http://www.w3.org/2000/svg" width="1585.413" height="454.832" viewBox="0 0 1585.413 454.832">
  <g id="Group_217" data-name="Group 217" transform="translate(-163.059 -4690.443)">
    <g id="Group_79" data-name="Group 79">
      <g id="Group_67" data-name="Group 67">
        <g id="Group_66" data-name="Group 66">
          <rect id="Rectangle_49" data-name="Rectangle 49" width="154.341" height="4.312" transform="matrix(0.779, -0.627, 0.627, 0.779, 1373.789, 5031.231)" fill="#e6e6e6"/>
        </g>
      </g>
      <g id="Group_69" data-name="Group 69">
        <g id="Group_68" data-name="Group 68">
          <path id="Path_61" data-name="Path 61" d="M1748.472,4842.434h-5.606v-4.313h1.278c-.022-1.406-.064-2.815-.127-4.21l4.308-.194c.1,2.174.147,4.381.147,6.56Zm-11.211,0h-9.919v-4.313h9.919Zm-15.525,0h-9.918v-4.313h9.918Zm-15.524,0h-9.918v-4.313h9.918Zm-15.524,0h-9.918v-4.313h9.918Zm-15.524,0h-9.918v-4.313h9.918Zm-15.524,0h-9.918v-4.313h9.918Zm-15.524,0H1634.2v-4.313h9.918Zm-15.524,0h-9.918v-4.313h9.918Zm-15.524,0h-10.349v-3.881h2.156v-.432h8.193Zm-6.037-9.487h-4.312v-9.918h4.312Zm136.63-4.544c-.272-3.231-.663-6.493-1.16-9.692l4.261-.662c.513,3.3.915,6.66,1.2,9.992Zm-136.63-10.98h-4.312V4807.5h4.312Zm134.514-4.146c-.625-3.183-1.371-6.381-2.218-9.5l4.163-1.128c.873,3.222,1.642,6.52,2.287,9.8ZM1607.031,4801.9h-4.312v-9.919h4.312Zm130.748-3.424c-.974-3.1-2.07-6.2-3.258-9.215l4.013-1.58c1.224,3.11,2.355,6.307,3.359,9.5Zm-130.748-12.1h-4.312v-9.919h4.312Zm125.361-2.22c-1.307-2.965-2.739-5.925-4.253-8.8l3.813-2.013c1.563,2.961,3.038,6.012,4.386,9.07Zm-125.361-13.3h-4.312v-9.918h4.312Zm118.431-.327c-1.626-2.8-3.373-5.588-5.193-8.274l3.57-2.419c1.876,2.769,3.678,5.639,5.354,8.53Zm-8.381-12.785c-1.923-2.61-3.964-5.185-6.065-7.655l3.285-2.794c2.165,2.545,4.269,5.2,6.252,7.891Zm-110.05-2.412h-4.312v-9.918h4.312Zm100.326-9.377c-2.2-2.385-4.5-4.722-6.86-6.948l2.961-3.135c2.428,2.294,4.808,4.7,7.071,7.162Zm-100.326-6.147h-4.312v-9.918h4.312Zm89.381-4.51c-2.445-2.133-4.993-4.205-7.574-6.158l2.6-3.439c2.661,2.013,5.288,4.149,7.808,6.347Zm-12.036-9.4c-2.661-1.853-5.419-3.634-8.2-5.293l2.21-3.7c2.865,1.71,5.708,3.546,8.451,5.456Zm-77.345-1.617h-4.312v-9.918h4.312Zm64.362-6.406c-2.846-1.55-5.781-3.017-8.723-4.36l1.791-3.923c3.033,1.385,6.06,2.9,8.995,4.5Zm-13.774-6.547c-3-1.229-6.082-2.365-9.158-3.378l1.349-4.1c3.172,1.045,6.349,2.217,9.443,3.483Zm-50.588-2.571h-4.312V4696.68h2.156c2.828,0,5.684.083,8.49.247l-.251,4.305c-2.011-.117-4.049-.192-6.083-.223Zm36.155-2.427c-3.113-.888-6.3-1.678-9.474-2.346l.889-4.22c3.272.689,6.559,1.5,9.769,2.42Zm-14.9-3.376c-3.186-.539-6.441-.973-9.675-1.29l.421-4.293c3.333.328,6.689.775,9.974,1.332Z" fill="#e6e6e6"/>
        </g>
      </g>
      <g id="Group_71" data-name="Group 71">
        <g id="Group_70" data-name="Group 70">
          <path id="Path_62" data-name="Path 62" d="M1380.236,5028.819a6.535,6.535,0,1,1-9.189-.994A6.535,6.535,0,0,1,1380.236,5028.819Z" fill="#e6e6e6"/>
        </g>
      </g>
      <g id="Group_73" data-name="Group 73">
        <g id="Group_72" data-name="Group 72">
          <path id="Path_63" data-name="Path 63" d="M1501.476,4980.151a141.433,141.433,0,0,0,197.238-23.754l-110.657-88.09Z" fill="#e6e6e6"/>
        </g>
      </g>
      <g id="Group_75" data-name="Group 75">
        <g id="Group_74" data-name="Group 74">
          <path id="Path_64" data-name="Path 64" d="M1592.369,4859.683l110.658,88.089a140.832,140.832,0,0,0,30.784-88.089Z" fill="#e6e6e6"/>
        </g>
      </g>
      <g id="Group_77" data-name="Group 77">
        <g id="Group_76" data-name="Group 76">
          <path id="Path_65" data-name="Path 65" d="M1486.336,4987.489l-1.705-1.322a145.243,145.243,0,0,1-38.637-45.618l-1.022-1.9,135.468-72.72Zm-35.507-47.091a141.035,141.035,0,0,0,34.749,41.025l79.048-102.112Z" fill="#e6e6e6"/>
        </g>
      </g>
      <g id="Group_78" data-name="Group 78">
        <path id="Path_66" data-name="Path 66" d="M1444.891,4855.371a140.8,140.8,0,0,0,16.8,66.907l124.64-66.907V4713.929A141.441,141.441,0,0,0,1444.891,4855.371Z" fill="#e6e6e6"/>
      </g>
    </g>
    <g id="Group_81" data-name="Group 81">
      <g id="Group_80" data-name="Group 80">
        <path id="Path_67" data-name="Path 67" d="M173.492,4960.107a5.216,5.216,0,1,1-5.216-5.217A5.217,5.217,0,0,1,173.492,4960.107Z" fill="#e6e6e6"/>
      </g>
    </g>
    <g id="Group_202" data-name="Group 202">
      <g id="Group_102" data-name="Group 102">
        <g id="Group_98" data-name="Group 98">
          <g id="Group_83" data-name="Group 83">
            <g id="Group_82" data-name="Group 82">
              <path id="Path_68" data-name="Path 68" d="M500.43,4874.277H396.422l-52.494-90.922,52-90.073,2.94,1.7-51.024,88.376,50.534,87.528H500.43Z" fill="#e6e6e6"/>
            </g>
          </g>
          <g id="Group_85" data-name="Group 85">
            <g id="Group_84" data-name="Group 84">
              <path id="Path_69" data-name="Path 69" d="M655.573,4963.5H550.585l-52.494-90.922,52.494-90.921H655.573l52.493,90.921Zm-103.028-3.394H653.613l50.534-87.528-50.534-87.527H552.545l-50.534,87.527Z" fill="#e6e6e6"/>
            </g>
          </g>
          <g id="Group_87" data-name="Group 87">
            <g id="Group_86" data-name="Group 86">
              <path id="Path_70" data-name="Path 70" d="M655.573,5141.951H550.585l-52-90.074,2.939-1.7,51.024,88.376H653.613l50.534-87.528-51.024-88.376,2.94-1.7,52,90.073Z" fill="#e6e6e6"/>
            </g>
          </g>
          <g id="Group_89" data-name="Group 89">
            <g id="Group_88" data-name="Group 88">
              <path id="Path_71" data-name="Path 71" d="M501.41,5052.726H396.422L343.928,4961.8l52.494-90.922H500.43v3.395H398.382L347.848,4961.8l50.534,87.527H499.45l51.024-88.376,2.939,1.7Z" fill="#e6e6e6"/>
            </g>
          </g>
          <g id="Group_91" data-name="Group 91">
            <g id="Group_90" data-name="Group 90">
              <path id="Path_72" data-name="Path 72" d="M810.388,5051.877l-2.939-1.7,51.024-88.376-50.534-87.527H705.89v-3.395H809.9l52.494,90.922Z" fill="#e6e6e6"/>
            </g>
          </g>
          <g id="Group_93" data-name="Group 93">
            <g id="Group_92" data-name="Group 92">
              <rect id="Rectangle_50" data-name="Rectangle 50" width="103.028" height="3.394" transform="translate(807.448 4871.731) rotate(-60)" fill="#e6e6e6"/>
            </g>
          </g>
          <g id="Group_95" data-name="Group 95">
            <g id="Group_94" data-name="Group 94">
              <rect id="Rectangle_51" data-name="Rectangle 51" width="176.059" height="3.394" transform="translate(860.432 4960.107)" fill="#e6e6e6"/>
            </g>
          </g>
          <g id="Group_97" data-name="Group 97">
            <g id="Group_96" data-name="Group 96">
              <rect id="Rectangle_52" data-name="Rectangle 52" width="179.458" height="3.394" transform="translate(166.429 4960.107)" fill="#e6e6e6"/>
            </g>
          </g>
        </g>
        <g id="Group_100" data-name="Group 100">
          <g id="Group_99" data-name="Group 99">
            <path id="Path_73" data-name="Path 73" d="M1193.173,5052.726H1088.186l-52.494-90.922,52.494-90.922h104.987l52.494,90.922Zm-103.028-3.394h101.068l50.535-87.528-50.535-87.527H1090.145l-50.534,87.527Z" fill="#e6e6e6"/>
          </g>
        </g>
        <g id="Group_101" data-name="Group 101">
          <rect id="Rectangle_53" data-name="Rectangle 53" width="181.938" height="4.061" transform="translate(1191.214 4871.518)" fill="#e6e6e6"/>
        </g>
      </g>
      <g id="Group_104" data-name="Group 104">
        <g id="Group_103" data-name="Group 103">
          <path id="Path_74" data-name="Path 74" d="M1378.368,4872.988a5.217,5.217,0,1,1-5.217-5.216A5.217,5.217,0,0,1,1378.368,4872.988Z" fill="#e6e6e6"/>
        </g>
      </g>
      <g id="Group_106" data-name="Group 106">
        <g id="Group_105" data-name="Group 105">
          <path id="Path_75" data-name="Path 75" d="M1095.47,4872.988a5.217,5.217,0,1,1-5.217-5.216A5.217,5.217,0,0,1,1095.47,4872.988Z" fill="#e6e6e6"/>
        </g>
      </g>
      <g id="Group_113" data-name="Group 113">
        <g id="Group_108" data-name="Group 108">
          <g id="Group_107" data-name="Group 107">
            <path id="Path_76" data-name="Path 76" d="M1145.468,4964.661a4.789,4.789,0,1,0-7.6,3.87l-1.292,9.141h8.209l-1.292-9.141A4.776,4.776,0,0,0,1145.468,4964.661Z" fill="#e6e6e6"/>
          </g>
        </g>
        <g id="Group_110" data-name="Group 110">
          <g id="Group_109" data-name="Group 109">
            <path id="Path_77" data-name="Path 77" d="M1134.959,4941.082a7.62,7.62,0,0,0-3.5,6.438v6.945h18.383v-7C1149.093,4941.1,1141.857,4936.7,1134.959,4941.082Z" fill="#e6e6e6"/>
          </g>
        </g>
        <g id="Group_112" data-name="Group 112">
          <g id="Group_111" data-name="Group 111">
            <path id="Path_78" data-name="Path 78" d="M1173.244,4905.4h-65.129l-32.565,56.4,32.565,56.4h65.129l32.565-56.4Zm-12.59,80.077H1120.7v-31.013h3.545V4947.5a14.845,14.845,0,0,1,7.823-13.163c12.475-6.571,25.035,2.381,25.035,14.206h-.1v5.923h3.65Z" fill="#e6e6e6"/>
          </g>
        </g>
      </g>
      <g id="Group_124" data-name="Group 124">
        <g id="Group_116" data-name="Group 116">
          <g id="Group_115" data-name="Group 115">
            <g id="Group_114" data-name="Group 114">
              <path id="Path_79" data-name="Path 79" d="M987.7,4879.166a6.338,6.338,0,0,0-6.388-6.417,4.068,4.068,0,0,1-2.946-.992,2.324,2.324,0,0,1-.525-1.429,2.216,2.216,0,0,1,2.217-2.216,6.6,6.6,0,0,1,3.617,1.079l3.179-3.18a10.99,10.99,0,0,0-4.249-2.038v-3.684h-3.971v3.544a6.649,6.649,0,0,0-.151,12.941c1.108.263,2.859.088,3.908.7a1.878,1.878,0,0,1,.875,1.692,2.209,2.209,0,0,1-2.187,2.217,6.607,6.607,0,0,1-4.521-1.779l-3.121,3.12a11.016,11.016,0,0,0,5.2,2.793v2.748h3.971v-2.656A6.641,6.641,0,0,0,987.7,4879.166Z" fill="#e6e6e6"/>
            </g>
          </g>
        </g>
        <g id="Group_123" data-name="Group 123">
          <g id="Group_118" data-name="Group 118">
            <g id="Group_117" data-name="Group 117">
              <path id="Path_80" data-name="Path 80" d="M980.164,4854.2a21.23,21.23,0,1,0,21.231,21.229A21.258,21.258,0,0,0,980.164,4854.2Zm9.428,35.34A16.971,16.971,0,1,1,994.273,4866,16.989,16.989,0,0,1,989.592,4889.539Z" fill="#e6e6e6"/>
            </g>
          </g>
          <g id="Group_120" data-name="Group 120">
            <g id="Group_119" data-name="Group 119">
              <path id="Path_81" data-name="Path 81" d="M1043.89,4842.157H917.253v65.709H1043.89Zm-6.181,46.263h-.859a13.529,13.529,0,0,0-13.527,13.528v.859H937v-.859a13.527,13.527,0,0,0-13.527-13.528h-.858v-25.982h.858A13.525,13.525,0,0,0,937,4848.91v-.859h86.319v.859a13.527,13.527,0,0,0,13.527,13.528h.859Z" fill="#e6e6e6"/>
            </g>
          </g>
          <g id="Group_122" data-name="Group 122">
            <g id="Group_121" data-name="Group 121">
              <path id="Path_82" data-name="Path 82" d="M1040.036,4840.688l.047.089A.152.152,0,0,0,1040.036,4840.688Z" fill="#e6e6e6"/>
            </g>
          </g>
        </g>
      </g>
      <g id="Group_126" data-name="Group 126">
        <g id="Group_125" data-name="Group 125">
          <path id="Path_83" data-name="Path 83" d="M551.095,4963.274l-6.388-3.688,1.7-2.94,6.388,3.689Zm-10.21-5.9-6.761-3.9,1.7-2.94,6.762,3.9ZM530.3,4951.27l-6.761-3.9,1.7-2.939,6.761,3.9Zm-10.582-6.11-6.761-3.9,1.7-2.939,6.761,3.9Zm-10.583-6.11-6.761-3.9,1.7-2.94,6.761,3.9Zm-10.582-6.11-6.761-3.9,1.7-2.939,6.761,3.9Zm-10.583-6.109-6.76-3.9,1.7-2.939,6.761,3.9Zm-10.582-6.11-6.761-3.9,1.7-2.94,6.761,3.9Zm-10.582-6.11-6.761-3.9,1.7-2.94,6.761,3.9Zm-10.583-6.11-6.761-3.9,1.7-2.939,6.76,3.9Zm-10.582-6.109-6.761-3.9,1.7-2.939,6.761,3.9Zm-10.583-6.11-6.76-3.9,1.7-2.94,6.761,3.9Zm-10.582-6.11-6.761-3.9,1.7-2.94,6.761,3.9Zm-10.582-6.11-6.761-3.9,1.7-2.939,6.761,3.9Zm-10.583-6.109-6.761-3.9,1.7-2.939,6.761,3.9Z" fill="#e6e6e6"/>
        </g>
      </g>
      <g id="Group_128" data-name="Group 128">
        <g id="Group_127" data-name="Group 127">
          <path id="Path_84" data-name="Path 84" d="M172.743,4960.823l-1.169-3.187,7.329-2.689,1.169,3.187Zm11.472-4.209-1.169-3.186,7.329-2.689,1.169,3.186Zm11.471-4.208-1.169-3.187,7.33-2.688,1.169,3.186Zm11.473-4.209-1.17-3.186,7.33-2.689,1.169,3.187Zm11.472-4.208-1.17-3.186,7.33-2.689,1.169,3.187Zm11.471-4.208-1.169-3.187,7.33-2.689,1.169,3.187Zm11.472-4.208-1.169-3.187,7.33-2.689,1.169,3.187Zm11.472-4.209-1.169-3.186,7.33-2.689,1.169,3.187Zm11.472-4.208-1.169-3.187,7.329-2.688,1.169,3.186Zm11.472-4.209-1.169-3.186,7.33-2.689,1.168,3.187Zm11.472-4.208-1.169-3.187,7.329-2.688,1.17,3.186Zm11.472-4.208-1.169-3.187,7.329-2.689,1.169,3.187Zm11.472-4.208-1.169-3.187,7.329-2.689,1.169,3.187Zm11.472-4.209-1.169-3.186,7.329-2.689,1.169,3.186Zm11.472-4.208-1.169-3.187,7.329-2.689,1.169,3.187Zm11.472-4.209-1.169-3.186,7.329-2.689,1.169,3.187Zm11.472-4.208-1.169-3.187,7.329-2.688,1.169,3.187Zm11.472-4.208-1.169-3.187,7.329-2.689,1.169,3.187Zm12.147-4.564-1.169-3.186,7.329-2.689,1.169,3.187Zm11.888-4.972-1.3-3.134,7.209-3,1.3,3.135Zm11.15-5.5-1.3-3.134.133-.055,6.363-3.81,1.743,2.913-6.574,3.936Zm296.762-.213-4.719-2.826,1.744-2.912,4.719,2.825Zm-8.505-5.092-6.7-4.011,1.744-2.912,6.7,4.011ZM413.672,4867.9l-1.744-2.912,6.7-4.011,1.744,2.912Zm267.052-5.23-6.7-4.01,1.744-2.912,6.7,4.01Zm-256.568-1.047-1.743-2.913,6.7-4.01,1.744,2.912Zm246.085-5.23-6.7-4.01,1.744-2.913,6.7,4.011Zm-235.6-1.047-1.744-2.913,6.7-4.01,1.744,2.912Zm225.117-5.23-6.7-4.01,1.743-2.913,6.7,4.011Zm-214.633-1.048-1.744-2.912,6.7-4.01,1.744,2.912Zm204.149-5.229-6.7-4.011,1.743-2.912,6.7,4.011Zm-193.665-1.048-1.744-2.912,6.7-4.011,1.744,2.913Zm183.181-5.229-6.7-4.011,1.743-2.912,6.7,4.011Zm-172.7-1.048-1.744-2.913,6.7-4.01,1.744,2.912Zm162.213-5.23-6.7-4.01,1.743-2.912,6.7,4.01Zm-151.73-1.047-1.743-2.913,6.7-4.01,1.744,2.912ZM617.821,4825l-6.7-4.01,1.743-2.913,6.7,4.011Zm-130.761-1.048-1.744-2.912,6.7-4.01,1.743,2.912Zm120.277-5.229-6.7-4.01,1.744-2.913,6.7,4.011Zm-109.793-1.048-1.744-2.912,6.7-4.01,1.743,2.912Zm99.309-5.229-6.7-4.011,1.743-2.912,6.7,4.011Zm-88.826-1.048-1.743-2.912,6.7-4.011,1.743,2.913Zm78.342-5.229-6.7-4.011,1.744-2.912,6.7,4.011Zm-67.858-1.048-1.743-2.912,6.7-4.011,1.743,2.912Zm57.374-5.23-6.7-4.01,1.744-2.912,6.7,4.01Zm-46.89-1.048-1.744-2.912,6.7-4.01,1.743,2.912Zm36.406-5.229-6.7-4.01,1.744-2.912,6.7,4.01Zm-25.922-1.048-1.744-2.912,6.7-4.011,1.744,2.913Zm15.438-5.229-3.352-2.007-1.6.959-1.744-2.912,3.346-2,5.1,3.051Z" fill="#e6e6e6"/>
        </g>
      </g>
      <g id="Group_130" data-name="Group 130">
        <g id="Group_129" data-name="Group 129">
          <path id="Path_85" data-name="Path 85" d="M1034.779,4962.486l-5.483-5.558,2.416-2.384,5.483,5.558Zm-172.65-5.826h-3.394v-7.807h3.394Zm164.068-2.873-5.483-5.557,2.416-2.384,5.483,5.557Zm-8.582-8.7-5.483-5.558,2.416-2.384,5.483,5.558Zm-155.486-.648h-3.394v-7.807h3.394Zm146.9-8.051-5.483-5.557,2.416-2.384,5.483,5.557Zm-146.9-4.169h-3.394v-7.807h3.394Zm138.322-4.529-5.483-5.558,2.416-2.384,5.483,5.558ZM862.129,4920h-3.394v-7.807h3.394Zm129.74-1.009-5.483-5.557,2.416-2.384,5.483,5.557Zm-8.582-8.7-5.483-5.557,2.416-2.384,5.483,5.557Zm-121.158-2.512h-3.394v-7.807h3.394Zm112.576-6.186-5.483-5.558,2.416-2.384,5.483,5.558Zm-112.576-6.033h-3.394v-7.807h3.394Zm103.994-2.666-5.483-5.557,2.416-2.384,5.483,5.557Zm-8.582-8.7-5.483-5.558,2.416-2.384,5.483,5.558Zm-95.412-.856h-3.394v-7.807h3.394Zm86.83-7.843-5.483-5.557,2.416-2.384,5.483,5.557Zm-86.83-4.376h-3.394v-7.807h3.394Zm78.248-4.322-5.483-5.558,2.416-2.384,5.483,5.558Zm-78.248-7.9h-3.394V4851.1h3.394Zm69.666-.8-5.483-5.557,2.416-2.384,5.483,5.557Zm-8.582-8.7-5.483-5.557,2.416-2.384,5.483,5.557Zm-61.084-2.719h-3.394v-7.807h3.394Zm52.5-5.979-5.483-5.557,2.416-2.384,5.483,5.557Zm-52.5-6.241h-3.394v-7.807h3.394Zm43.92-2.458-5.483-5.557,2.416-2.384,5.483,5.557Zm-8.582-8.7-5.483-5.558,2.416-2.383,5.483,5.557Zm-35.338-1.063h-3.394v-7.807h3.394Zm26.756-7.636-5.483-5.557,2.416-2.384,5.483,5.557Zm-26.756-4.584h-3.394v-7.806h3.394Zm18.174-4.114-5.483-5.558,2.416-2.384,5.483,5.558Zm-18.174-8.1h-3.394V4790h3.394Zm9.592-.594-5.483-5.557,2.416-2.384,5.483,5.557Zm-8.582-8.7-2.888-2.928h-1.516v-6.369l6.82,6.913Z" fill="#e6e6e6"/>
        </g>
      </g>
      <g id="Group_132" data-name="Group 132">
        <g id="Group_131" data-name="Group 131">
          <rect id="Rectangle_54" data-name="Rectangle 54" width="7.807" height="3.394" transform="translate(264.764 4780.926)" fill="#e6e6e6"/>
          <rect id="Rectangle_55" data-name="Rectangle 55" width="7.807" height="3.394" transform="translate(240.325 4780.926)" fill="#e6e6e6"/>
          <rect id="Rectangle_56" data-name="Rectangle 56" width="7.807" height="3.394" transform="translate(252.545 4780.926)" fill="#e6e6e6"/>
          <rect id="Rectangle_57" data-name="Rectangle 57" width="7.807" height="3.394" transform="translate(276.984 4780.926)" fill="#e6e6e6"/>
          <rect id="Rectangle_58" data-name="Rectangle 58" width="7.807" height="3.394" transform="translate(313.642 4780.926)" fill="#e6e6e6"/>
          <rect id="Rectangle_59" data-name="Rectangle 59" width="7.807" height="3.394" transform="translate(338.081 4780.926)" fill="#e6e6e6"/>
          <rect id="Rectangle_60" data-name="Rectangle 60" width="7.807" height="3.394" transform="translate(325.862 4780.926)" fill="#e6e6e6"/>
          <rect id="Rectangle_61" data-name="Rectangle 61" width="7.807" height="3.394" transform="translate(301.423 4780.926)" fill="#e6e6e6"/>
          <rect id="Rectangle_62" data-name="Rectangle 62" width="7.807" height="3.394" transform="translate(289.203 4780.926)" fill="#e6e6e6"/>
        </g>
      </g>
      <g id="Group_134" data-name="Group 134">
        <g id="Group_133" data-name="Group 133">
          <path id="Path_86" data-name="Path 86" d="M393.086,5052.511l-1.656-2.964,6.815-3.808,1.656,2.964Zm10.667-5.961-1.656-2.963,6.816-3.808,1.655,2.963Zm10.667-5.96-1.655-2.964,6.815-3.808,1.655,2.964Zm10.667-5.96-1.655-2.964,6.815-3.808,1.656,2.964Zm10.668-5.961-1.656-2.963,6.815-3.808,1.656,2.963Zm10.667-5.96-1.656-2.963,6.815-3.808,1.656,2.963Zm10.667-5.961-1.655-2.963,6.815-3.808,1.655,2.963Zm10.667-5.96-1.655-2.963,6.815-3.808,1.656,2.963Zm10.668-5.96-1.656-2.963,6.815-3.808,1.656,2.963Zm10.667-5.961-1.656-2.963,6.815-3.808,1.656,2.963Zm10.667-5.96-1.656-2.963,6.816-3.808,1.655,2.963Zm10.667-5.96-1.655-2.963,6.815-3.808,1.656,2.963Zm10.668-5.961-1.656-2.963,6.815-3.808,1.656,2.963Zm10.667-5.96-1.656-2.963,6.815-3.808,1.656,2.963Zm10.667-5.96-1.656-2.963,6.816-3.808,1.655,2.963Z" fill="#e6e6e6"/>
        </g>
      </g>
      <g id="Group_136" data-name="Group 136">
        <g id="Group_135" data-name="Group 135">
          <path id="Path_87" data-name="Path 87" d="M557.088,4961.8a5.144,5.144,0,1,1-5.144-5.144A5.144,5.144,0,0,1,557.088,4961.8Z" fill="#e6e6e6"/>
        </g>
      </g>
      <g id="Group_138" data-name="Group 138">
        <g id="Group_137" data-name="Group 137">
          <circle id="Ellipse_7" data-name="Ellipse 7" cx="5.144" cy="5.144" r="5.144" transform="translate(650.284 4956.66)" fill="#e6e6e6"/>
        </g>
      </g>
      <g id="Group_140" data-name="Group 140">
        <g id="Group_139" data-name="Group 139">
          <circle id="Ellipse_8" data-name="Ellipse 8" cx="5.144" cy="5.144" r="5.144" transform="translate(650.284 4778.21)" fill="#e6e6e6"/>
        </g>
      </g>
      <g id="Group_142" data-name="Group 142">
        <g id="Group_141" data-name="Group 141">
          <circle id="Ellipse_9" data-name="Ellipse 9" cx="5.144" cy="5.144" r="5.144" transform="translate(546.421 4778.21)" fill="#e6e6e6"/>
        </g>
      </g>
      <g id="Group_144" data-name="Group 144">
        <g id="Group_143" data-name="Group 143">
          <path id="Path_88" data-name="Path 88" d="M865.576,4961.8a5.144,5.144,0,1,1-5.144-5.144A5.144,5.144,0,0,1,865.576,4961.8Z" fill="#e6e6e6"/>
        </g>
      </g>
      <g id="Group_146" data-name="Group 146">
        <g id="Group_145" data-name="Group 145">
          <circle id="Ellipse_10" data-name="Ellipse 10" cx="5.144" cy="5.144" r="5.144" transform="translate(340.744 4956.66)" fill="#e6e6e6"/>
        </g>
      </g>
      <g id="Group_148" data-name="Group 148">
        <g id="Group_147" data-name="Group 147">
          <circle id="Ellipse_11" data-name="Ellipse 11" cx="5.144" cy="5.144" r="5.144" transform="translate(495.286 4867.436)" fill="#e6e6e6"/>
        </g>
      </g>
      <g id="Group_150" data-name="Group 150">
        <g id="Group_149" data-name="Group 149">
          <circle id="Ellipse_12" data-name="Ellipse 12" cx="5.144" cy="5.144" r="5.144" transform="translate(392.258 4867.436)" fill="#e6e6e6"/>
        </g>
      </g>
      <g id="Group_152" data-name="Group 152">
        <g id="Group_151" data-name="Group 151">
          <path id="Path_89" data-name="Path 89" d="M813.9,4872.579a5.145,5.145,0,1,1-5.144-5.144A5.146,5.146,0,0,1,813.9,4872.579Z" fill="#e6e6e6"/>
        </g>
      </g>
      <g id="Group_154" data-name="Group 154">
        <g id="Group_153" data-name="Group 153">
          <circle id="Ellipse_13" data-name="Ellipse 13" cx="5.144" cy="5.144" r="5.144" transform="translate(855.288 4778.21)" fill="#e6e6e6"/>
        </g>
      </g>
      <g id="Group_156" data-name="Group 156">
        <g id="Group_155" data-name="Group 155">
          <circle id="Ellipse_14" data-name="Ellipse 14" cx="5.144" cy="5.144" r="5.144" transform="translate(700.585 4867.436)" fill="#e6e6e6"/>
        </g>
      </g>
      <g id="Group_158" data-name="Group 158">
        <g id="Group_157" data-name="Group 157">
          <path id="Path_90" data-name="Path 90" d="M351.032,4783.355a5.144,5.144,0,1,1-5.144-5.144A5.144,5.144,0,0,1,351.032,4783.355Z" fill="#e6e6e6"/>
        </g>
      </g>
      <g id="Group_160" data-name="Group 160">
        <g id="Group_159" data-name="Group 159">
          <path id="Path_91" data-name="Path 91" d="M402.546,4695.587a5.144,5.144,0,1,1-5.144-5.144A5.144,5.144,0,0,1,402.546,4695.587Z" fill="#e6e6e6"/>
        </g>
      </g>
      <g id="Group_162" data-name="Group 162">
        <g id="Group_161" data-name="Group 161">
          <circle id="Ellipse_15" data-name="Ellipse 15" cx="5.144" cy="5.144" r="5.144" transform="translate(232.55 4777.532)" fill="#e6e6e6"/>
        </g>
      </g>
      <g id="Group_165" data-name="Group 165">
        <g id="Group_164" data-name="Group 164">
          <g id="Group_163" data-name="Group 163">
            <path id="Path_92" data-name="Path 92" d="M472.149,4794.139c0-12.163-9.027-20.335-20.81-20.905-3.611-.19-7.317-.665-9.6-3.231a7.576,7.576,0,0,1-1.711-4.656,7.218,7.218,0,0,1,7.222-7.221,21.5,21.5,0,0,1,11.783,3.516l10.357-10.358a35.817,35.817,0,0,0-13.841-6.641v-12H442.614v11.547a21.66,21.66,0,0,0-.492,42.159c3.611.856,9.312.286,12.733,2.281a6.121,6.121,0,0,1,2.851,5.511,7.2,7.2,0,0,1-7.127,7.222,21.516,21.516,0,0,1-14.729-5.8l-10.167,10.167a35.891,35.891,0,0,0,16.931,9.1v8.951h12.938v-8.652A21.632,21.632,0,0,0,472.149,4794.139Z" fill="#e6e6e6"/>
          </g>
        </g>
      </g>
      <g id="Group_174" data-name="Group 174">
        <g id="Group_173" data-name="Group 173">
          <g id="Group_166" data-name="Group 166" opacity="0.8">
            <path id="Path_93" data-name="Path 93" d="M768.092,4944.589a13.388,13.388,0,0,0-26.761.881c.149,4.507,1.953,8.407,5.333,10.719v-8.456a8.43,8.43,0,0,1,16.86,0v8.062C766.764,4953.271,768.242,4949.165,768.092,4944.589Z" fill="#e6e6e6"/>
          </g>
          <g id="Group_168" data-name="Group 168">
            <g id="Group_167" data-name="Group 167">
              <path id="Path_94" data-name="Path 94" d="M760.22,4947.1a4.755,4.755,0,0,0-4.909-4.6l-.342.012a6.034,6.034,0,0,0-5.835,6.229l.013,8.146.024,17.948c-.11.557.227,13.026.227,13.026-1.089-1.04-2.3-2.231-3.4-3.372a17.7,17.7,0,0,0-10.149-4.608,4.973,4.973,0,0,0-3.575.759,7.542,7.542,0,0,0-.725.677c-1.5,1.578-2.59,4.084-1.448,5.857a6.21,6.21,0,0,0,2.189,1.794,14.944,14.944,0,0,1,4.585,3.212c2.5,2.993,8.289,9.678,11.827,13.232.726.419,2.279,1.871,3,2.228a26.613,26.613,0,0,1,4.64,3.227,21.961,21.961,0,0,0,3.367,1.884,22.215,22.215,0,0,0,11.329,2.428c4.789-.158,9.151-.014,12.274-2.949l.172,0,.078-.217a15.9,15.9,0,0,0,4.919-11.915c-.037-1.135-.175-5.322-.2-6.11l-.521-15.84c-.035-1.076-.391-4.674-3.459-5.657a5.373,5.373,0,0,0-4,.317l-.274.021-.084.008a4.61,4.61,0,0,0-3.911-3.474,6.343,6.343,0,0,0-4.93,1.17,5.221,5.221,0,0,0-5.672-2.782,6.478,6.478,0,0,0-4.45,2.575l-.444-13.507Z" fill="#e6e6e6"/>
            </g>
          </g>
          <g id="Group_170" data-name="Group 170" opacity="0.4">
            <g id="Group_169" data-name="Group 169">
              <path id="Path_95" data-name="Path 95" d="M785.3,4966.263l2.753,2.868a1.218,1.218,0,0,0,1.884-.145,42.335,42.335,0,0,0-36.6-65.859,43.911,43.911,0,0,0-4.824.428,42.339,42.339,0,0,0-27.374,67.694,1.221,1.221,0,0,0,1.893.024l2.555-3.039a1.213,1.213,0,0,0,.037-1.5,36.072,36.072,0,1,1,59.537-1.964A1.211,1.211,0,0,0,785.3,4966.263Z" fill="#e6e6e6"/>
            </g>
          </g>
          <g id="Group_172" data-name="Group 172" opacity="0.6">
            <g id="Group_171" data-name="Group 171">
              <path id="Path_96" data-name="Path 96" d="M775.355,4955.308l3.292,3.429a1.383,1.383,0,0,0,2.255-.38,28.358,28.358,0,0,0,2.638-12.967,28.8,28.8,0,1,0-57.571,1.894,28.4,28.4,0,0,0,3.481,12.765,1.388,1.388,0,0,0,2.279.232l3.056-3.638a1.376,1.376,0,0,0,.191-1.457,21.509,21.509,0,0,1-1.9-8.136,21.686,21.686,0,1,1,41.995,6.817A1.377,1.377,0,0,0,775.355,4955.308Z" fill="#e6e6e6"/>
            </g>
          </g>
        </g>
      </g>
      <g id="Group_179" data-name="Group 179">
        <g id="Group_176" data-name="Group 176">
          <g id="Group_175" data-name="Group 175">
            <path id="Path_97" data-name="Path 97" d="M601.853,4829.9a.979.979,0,0,0-1.034-.077,1,1,0,0,0-.553.883v8.424c-18.582,1.158-33.158,16.527-33.158,34.719a34.354,34.354,0,0,0,9.039,23.192.962.962,0,0,0,.69.313.91.91,0,0,0,.588-.2l8.188-6.423a.932.932,0,0,0,.356-.683.96.96,0,0,0-.276-.728,21.917,21.917,0,0,1-6.385-15.469,22.515,22.515,0,0,1,20.958-22.181v8.436a.951.951,0,0,0,.553.861,1,1,0,0,0,1.034-.124l9.584-7.573a.939.939,0,0,0,.183-.118l3.678-2.935,5.7-4.5a.993.993,0,0,0,.382-.775.94.94,0,0,0-.382-.756Z" fill="#e6e6e6"/>
          </g>
        </g>
        <g id="Group_178" data-name="Group 178">
          <g id="Group_177" data-name="Group 177">
            <path id="Path_98" data-name="Path 98" d="M626.231,4849.273l-8.733,6.917a.983.983,0,0,0-.375.722.945.945,0,0,0,.306.742,21.871,21.871,0,0,1,7.152,16.205,22.444,22.444,0,0,1-22.315,22.244v-8.713a.973.973,0,0,0-.553-.875.988.988,0,0,0-1.034.1l-9.347,7.207a.93.93,0,0,0-.429.3c-.014.017-.027.035-.04.054l-8.741,6.743a.93.93,0,0,0-.359.735.977.977,0,0,0,.359.751l18.557,15.124a1.02,1.02,0,0,0,.608.23.984.984,0,0,0,.426-.081.924.924,0,0,0,.553-.85v-8.184c19.494.145,35.666-15.312,35.666-34.791a34.3,34.3,0,0,0-10.329-24.525A1.044,1.044,0,0,0,626.231,4849.273Z" fill="#e6e6e6"/>
          </g>
        </g>
      </g>
      <g id="Group_181" data-name="Group 181">
        <g id="Group_180" data-name="Group 180">
          <path id="Path_99" data-name="Path 99" d="M711.034,5051.191a5.144,5.144,0,1,1-5.144-5.144A5.144,5.144,0,0,1,711.034,5051.191Z" fill="#e6e6e6"/>
        </g>
      </g>
      <g id="Group_183" data-name="Group 183">
        <g id="Group_182" data-name="Group 182">
          <path id="Path_100" data-name="Path 100" d="M813.685,5051.191a5.145,5.145,0,1,1-5.144-5.144A5.144,5.144,0,0,1,813.685,5051.191Z" fill="#e6e6e6"/>
        </g>
      </g>
      <g id="Group_185" data-name="Group 185">
        <g id="Group_184" data-name="Group 184">
          <circle id="Ellipse_16" data-name="Ellipse 16" cx="5.144" cy="5.144" r="5.144" transform="translate(1187.287 4867.436)" fill="#e6e6e6"/>
        </g>
      </g>
      <g id="Group_187" data-name="Group 187">
        <g id="Group_186" data-name="Group 186">
          <path id="Path_101" data-name="Path 101" d="M1042.339,4960.774a5.144,5.144,0,1,1-5.144-5.144A5.144,5.144,0,0,1,1042.339,4960.774Z" fill="#e6e6e6"/>
        </g>
      </g>
      <g id="Group_189" data-name="Group 189">
        <g id="Group_188" data-name="Group 188">
          <path id="Path_102" data-name="Path 102" d="M401.7,5051.191a5.144,5.144,0,1,1-5.144-5.144A5.144,5.144,0,0,1,401.7,5051.191Z" fill="#e6e6e6"/>
        </g>
      </g>
      <g id="Group_191" data-name="Group 191">
        <g id="Group_190" data-name="Group 190">
          <path id="Path_103" data-name="Path 103" d="M505.574,5051.191a5.144,5.144,0,1,1-5.144-5.144A5.144,5.144,0,0,1,505.574,5051.191Z" fill="#e6e6e6"/>
        </g>
      </g>
      <g id="Group_193" data-name="Group 193">
        <g id="Group_192" data-name="Group 192">
          <path id="Path_104" data-name="Path 104" d="M557.088,5140.131a5.144,5.144,0,1,1-5.144-5.144A5.144,5.144,0,0,1,557.088,5140.131Z" fill="#e6e6e6"/>
        </g>
      </g>
      <g id="Group_195" data-name="Group 195">
        <g id="Group_194" data-name="Group 194">
          <path id="Path_105" data-name="Path 105" d="M659.989,5140.131a5.145,5.145,0,1,1-5.145-5.144A5.145,5.145,0,0,1,659.989,5140.131Z" fill="#e6e6e6"/>
        </g>
      </g>
      <g id="Group_197" data-name="Group 197">
        <g id="Group_196" data-name="Group 196">
          <path id="Path_106" data-name="Path 106" d="M1095.47,5051.191a5.217,5.217,0,1,1-5.217-5.217A5.218,5.218,0,0,1,1095.47,5051.191Z" fill="#e6e6e6"/>
        </g>
      </g>
      <g id="Group_199" data-name="Group 199">
        <g id="Group_198" data-name="Group 198">
          <path id="Path_107" data-name="Path 107" d="M1196.43,5051.191a5.217,5.217,0,1,1-5.217-5.217A5.217,5.217,0,0,1,1196.43,5051.191Z" fill="#e6e6e6"/>
        </g>
      </g>
      <g id="Group_201" data-name="Group 201">
        <g id="Group_200" data-name="Group 200">
          <path id="Path_108" data-name="Path 108" d="M1248.309,4961.8a5.216,5.216,0,1,1-5.217-5.217A5.217,5.217,0,0,1,1248.309,4961.8Z" fill="#e6e6e6"/>
        </g>
      </g>
    </g>
    <g id="Group_215" data-name="Group 215">
      <g id="Group_204" data-name="Group 204">
        <g id="Group_203" data-name="Group 203">
          <path id="Path_109" data-name="Path 109" d="M608.083,5080.711l-.2-52.353a6.652,6.652,0,0,0,2.946-2.969l26.857-.1.813-1.611a1.049,1.049,0,0,1,1.868-.008l.823,1.607,1.46-.006a2.969,2.969,0,0,0-.022-5.937l-31.822.12a6.65,6.65,0,0,0-2.968-2.946l-.01-2.812a2.969,2.969,0,1,0-5.937.022l.011,2.812a6.649,6.649,0,0,0-2.946,2.968l-31.823.119a2.969,2.969,0,0,0,.023,5.938l1.458-.006.812-1.611a1.054,1.054,0,0,1,.933-.578,1.043,1.043,0,0,1,.935.57l.823,1.607,26.861-.1a6.621,6.621,0,0,0,2.969,2.946l.2,52.354Z" fill="#e6e6e6"/>
        </g>
      </g>
      <g id="Group_206" data-name="Group 206">
        <g id="Group_205" data-name="Group 205">
          <path id="Path_110" data-name="Path 110" d="M640.37,5023.668a1.049,1.049,0,0,0-1.868.008l-.813,1.611-15.061,29.949a1.019,1.019,0,0,0-.1.475l2.215-.008,14.7-29.241,14.922,29.131,2.217-.009a1.062,1.062,0,0,0-.1-.476l-15.287-29.833Z" fill="#e6e6e6"/>
        </g>
      </g>
      <g id="Group_208" data-name="Group 208">
        <g id="Group_207" data-name="Group 207">
          <path id="Path_111" data-name="Path 111" d="M624.742,5055.7l-2.215.008-1.318,0a18.348,18.348,0,1,0,36.7-.137l-1.32,0-2.217.009Z" fill="#e6e6e6"/>
        </g>
      </g>
      <g id="Group_210" data-name="Group 210">
        <g id="Group_209" data-name="Group 209">
          <path id="Path_112" data-name="Path 112" d="M571.3,5023.928a1.043,1.043,0,0,0-.935-.57,1.054,1.054,0,0,0-.933.578l-.812,1.611-15.06,29.947a1.033,1.033,0,0,0-.1.476l2.212-.007,14.705-29.241,14.923,29.129,2.217-.009a1.074,1.074,0,0,0-.1-.475l-15.29-29.832Z" fill="#e6e6e6"/>
        </g>
      </g>
      <g id="Group_212" data-name="Group 212">
        <g id="Group_211" data-name="Group 211">
          <path id="Path_113" data-name="Path 113" d="M555.669,5055.963l-2.212.007-1.323.006a18.35,18.35,0,0,0,36.7-.138l-1.32,0-2.217.009Z" fill="#e6e6e6"/>
        </g>
      </g>
      <g id="Group_214" data-name="Group 214">
        <g id="Group_213" data-name="Group 213">
          <path id="Path_114" data-name="Path 114" d="M608.083,5080.711l-5.937.022-15.741.06.016,4.237-9.552.036.017,4.239,56.357-.211-.016-4.238-9.552.036-.016-4.238Z" fill="#e6e6e6"/>
        </g>
      </g>
    </g>
    <g id="Group_216" data-name="Group 216">
      <path id="Path_115" data-name="Path 115" d="M259.294,4882.37a34.727,34.727,0,0,0,18.958,9.981,44.677,44.677,0,0,1-11.036-14.537A42.02,42.02,0,0,0,259.294,4882.37Z" fill="#e6e6e6"/>
      <path id="Path_116" data-name="Path 116" d="M250.106,4864.82a34.269,34.269,0,0,0,7.423,15.6,44.731,44.731,0,0,1,8.637-5.006,45.4,45.4,0,0,1-3.245-14.665l-8.087,0A5.226,5.226,0,0,1,250.106,4864.82Z" fill="#e6e6e6"/>
      <path id="Path_117" data-name="Path 117" d="M282.781,4871.6v-10.862l-17.237.009a42.841,42.841,0,0,0,3.054,13.683A46.024,46.024,0,0,1,282.781,4871.6Z" fill="#e6e6e6"/>
      <path id="Path_118" data-name="Path 118" d="M282.781,4892.637v-18.416a43.282,43.282,0,0,0-13.124,2.61A42.911,42.911,0,0,0,282.781,4892.637Z" fill="#e6e6e6"/>
      <path id="Path_119" data-name="Path 119" d="M262.856,4838.59a5.221,5.221,0,0,1,3.8-1.647,5.3,5.3,0,0,1,1.317.185,45.367,45.367,0,0,1,10.277-13.074,34.612,34.612,0,0,0-20.164,11.28A43.23,43.23,0,0,0,262.856,4838.59Z" fill="#e6e6e6"/>
      <path id="Path_120" data-name="Path 120" d="M266.807,4847.426a43.5,43.5,0,0,0-1.347,10.7l17.321-.011v-10.972a45.45,45.45,0,0,1-11.752-2.046A5.237,5.237,0,0,1,266.807,4847.426Z" fill="#e6e6e6"/>
      <path id="Path_121" data-name="Path 121" d="M256.435,4837.364a34.242,34.242,0,0,0-6.759,17c.014,0,.027,0,.042,0a5.231,5.231,0,0,1,5.011,3.768l8.108,0a46.106,46.106,0,0,1,1.416-11.294,5.226,5.226,0,0,1-2.844-4.638,5.113,5.113,0,0,1,.185-1.306A45.352,45.352,0,0,1,256.435,4837.364Z" fill="#e6e6e6"/>
      <path id="Path_122" data-name="Path 122" d="M299.588,4880.608c-.151,0-.294-.033-.443-.045a44.743,44.743,0,0,1-9.7,11.867,34.623,34.623,0,0,0,19.891-10.514,41.751,41.751,0,0,0-5.639-3.326A5.217,5.217,0,0,1,299.588,4880.608Z" fill="#e6e6e6"/>
      <path id="Path_123" data-name="Path 123" d="M311.067,4879.93a34.315,34.315,0,0,0,7.581-19.213l-13.777.006a45.771,45.771,0,0,1-1.844,10.7,5,5,0,0,1,1.726,4.77A44.607,44.607,0,0,1,311.067,4879.93Z" fill="#e6e6e6"/>
      <path id="Path_124" data-name="Path 124" d="M302.552,4843.5a45.969,45.969,0,0,1,2.4,14.6l13.793-.007a34.319,34.319,0,0,0-6.593-20.2A45.363,45.363,0,0,1,302.552,4843.5Z" fill="#e6e6e6"/>
      <path id="Path_125" data-name="Path 125" d="M282.781,4844.515v-20.744a42.858,42.858,0,0,0-12.511,14.623,5.228,5.228,0,0,1,1.639,3.8c0,.143-.03.275-.042.415A42.749,42.749,0,0,0,282.781,4844.515Z" fill="#e6e6e6"/>
      <path id="Path_126" data-name="Path 126" d="M285.4,4844.546a42.677,42.677,0,0,0,13.8-2.541,42.613,42.613,0,0,0-13.8-17.937Z" fill="#e6e6e6"/>
      <path id="Path_127" data-name="Path 127" d="M301.645,4841.035a42.768,42.768,0,0,0,8.888-5.2,34.472,34.472,0,0,0-21.09-11.857A45.112,45.112,0,0,1,301.645,4841.035Z" fill="#e6e6e6"/>
      <path id="Path_128" data-name="Path 128" d="M285.4,4858.113l16.925-.011a43.321,43.321,0,0,0-2.222-13.639,45.216,45.216,0,0,1-14.7,2.711Z" fill="#e6e6e6"/>
      <path id="Path_129" data-name="Path 129" d="M285.4,4874.188v18.151a43.1,43.1,0,0,0,11.208-12.661,5.241,5.241,0,0,1-2.275-4.319c0-.029.009-.054.009-.081A43.287,43.287,0,0,0,285.4,4874.188Z" fill="#e6e6e6"/>
      <path id="Path_130" data-name="Path 130" d="M295.055,4872.753a5.23,5.23,0,0,1,4.533-2.644,5.285,5.285,0,0,1,1.05.1,43.055,43.055,0,0,0,1.609-9.488l-16.843.008v10.837A46.06,46.06,0,0,1,295.055,4872.753Z" fill="#e6e6e6"/>
      <path id="Path_131" data-name="Path 131" d="M266.66,4836.943a5.237,5.237,0,0,0-5.066,3.943,5.113,5.113,0,0,0-.185,1.306,5.321,5.321,0,0,0,5.251,5.249c.05,0,.1-.015.147-.015a5.173,5.173,0,0,0,5.06-4.819c.012-.14.042-.272.042-.415a5.236,5.236,0,0,0-3.932-5.064A5.3,5.3,0,0,0,266.66,4836.943Z" fill="#e6e6e6"/>
      <path id="Path_132" data-name="Path 132" d="M249.718,4854.36c-.015,0-.028,0-.042,0a5.248,5.248,0,0,0,.042,10.5c.134,0,.258-.03.388-.039a5.261,5.261,0,0,0,4.861-5.21,5.153,5.153,0,0,0-.238-1.482A5.231,5.231,0,0,0,249.718,4854.36Z" fill="#e6e6e6"/>
      <path id="Path_133" data-name="Path 133" d="M300.638,4870.214a5.285,5.285,0,0,0-1.05-.1,5.293,5.293,0,0,0-5.242,5.169c0,.027-.009.052-.009.081a5.2,5.2,0,0,0,4.808,5.2c.149.012.292.045.443.045a5.255,5.255,0,0,0,1.05-10.394Z" fill="#e6e6e6"/>
    </g>
  </g>
</svg>
