<svg xmlns="http://www.w3.org/2000/svg" width="156.476" height="26.429" viewBox="0 0 156.476 26.429">
  <g id="Group_5" data-name="Group 5" transform="translate(-418.082 -62.251)">
    <g id="Group_4" data-name="Group 4">
      <path id="Path_1" data-name="Path 1" d="M437.8,75.65v.328c0-.112,0-.22.008-.328Z" fill="#30344f"/>
      <path id="Path_2" data-name="Path 2" d="M437.807,75.65c0,.108-.008.216-.008.328V75.65Z" fill="#30344f"/>
      <path id="Path_3" data-name="Path 3" d="M448.773,75.977a3.211,3.211,0,1,1-3.209-3.209,3.151,3.151,0,0,1,1.2.232A3.206,3.206,0,0,1,448.773,75.977Z" fill="#30344f"/>
      <path id="Path_4" data-name="Path 4" d="M437.807,75.65c0,.108-.008.216-.008.328V75.65Z" fill="#30344f"/>
      <g id="Group_2" data-name="Group 2">
        <g id="Group_1" data-name="Group 1">
          <path id="Path_5" data-name="Path 5" d="M421.824,68.6a1.045,1.045,0,0,1-.3.738,1.031,1.031,0,0,1-.738.305h-1.656a1.043,1.043,0,1,1,0-2.085h1.656A1.041,1.041,0,0,1,421.824,68.6Z" fill="#3574ff"/>
          <path id="Path_6" data-name="Path 6" d="M425.546,64.208a1.041,1.041,0,0,1,1.042-1.043h1.657a1.042,1.042,0,1,1,0,2.085h-1.657A1.043,1.043,0,0,1,425.546,64.208Z" fill="#3574ff"/>
          <path id="Path_7" data-name="Path 7" d="M458.358,75.923a12.769,12.769,0,0,1-16.2,12.286V82.881a7.765,7.765,0,1,0-3.05-11.209A7.831,7.831,0,0,0,437.84,75.6h0l0,10.448a12.739,12.739,0,0,1-4.873-8.363h-5.676a1.042,1.042,0,1,1,0-2.085h5.56a12.607,12.607,0,0,1,.182-1.838H431.7a1.043,1.043,0,1,1,0-2.085h1.876a12.138,12.138,0,0,1,.923-2.031H424.233a1.043,1.043,0,1,1,0-2.085h11.738a12.834,12.834,0,0,1,2.637-2.306H431.7a1.043,1.043,0,1,1,0-2.085h13.9c.4,0,.8.02,1.2.058A12.758,12.758,0,0,1,458.358,75.923Z" fill="#3574ff"/>
          <rect id="Rectangle_2" data-name="Rectangle 2" width="3.743" height="2.085" rx="1.043" transform="translate(425.544 71.671)" fill="#3574ff"/>
          <rect id="Rectangle_3" data-name="Rectangle 3" width="3.743" height="2.085" rx="1.043" transform="translate(421.135 75.594)" fill="#3574ff"/>
        </g>
      </g>
      <g id="Group_3" data-name="Group 3">
        <path id="Path_8" data-name="Path 8" d="M466.093,68.361V70a7.01,7.01,0,0,1,2.182-1.514,6.292,6.292,0,0,1,2.51-.505,6.484,6.484,0,0,1,4.938,2.2,7.973,7.973,0,0,1,2.032,5.634,7.771,7.771,0,0,1-2.1,5.544,6.615,6.615,0,0,1-4.978,2.231,6.193,6.193,0,0,1-2.387-.457,7.277,7.277,0,0,1-2.2-1.494v7h-3.7V68.361Zm3.914,3.056a3.889,3.889,0,0,0-2.919,1.2,4.325,4.325,0,0,0-1.159,3.137,4.453,4.453,0,0,0,1.159,3.2,3.855,3.855,0,0,0,2.919,1.221,3.782,3.782,0,0,0,2.871-1.242,4.86,4.86,0,0,0,.021-6.294A3.8,3.8,0,0,0,470.007,71.417Z" fill="#30344f"/>
        <path id="Path_9" data-name="Path 9" d="M491.79,68.361h3.724V83.2H491.79V81.633a7.3,7.3,0,0,1-2.186,1.494,6.133,6.133,0,0,1-2.378.457,6.606,6.606,0,0,1-4.973-2.231,7.78,7.78,0,0,1-2.1-5.544,7.972,7.972,0,0,1,2.03-5.634,6.47,6.47,0,0,1,4.931-2.2,6.278,6.278,0,0,1,2.507.505A6.846,6.846,0,0,1,491.79,70Zm-3.914,3.056a3.761,3.761,0,0,0-2.868,1.221,4.4,4.4,0,0,0-1.142,3.13,4.443,4.443,0,0,0,1.162,3.164,3.764,3.764,0,0,0,2.861,1.242,3.834,3.834,0,0,0,2.909-1.221,4.46,4.46,0,0,0,1.156-3.2,4.331,4.331,0,0,0-1.156-3.137A3.883,3.883,0,0,0,487.876,71.417Z" fill="#30344f"/>
        <path id="Path_10" data-name="Path 10" d="M497.632,68.361h3.805l3.855,9.312,4.254-9.312h3.816l-9.3,20.269h-3.845l3.051-6.536Z" fill="#30344f"/>
        <path id="Path_11" data-name="Path 11" d="M515.074,68.361H518.8V83.2h-3.723Z" fill="#30344f"/>
        <path id="Path_12" data-name="Path 12" d="M525.877,62.633V70a7.009,7.009,0,0,1,2.182-1.514,6.292,6.292,0,0,1,2.51-.505,6.484,6.484,0,0,1,4.938,2.2,7.973,7.973,0,0,1,2.032,5.634,7.771,7.771,0,0,1-2.1,5.544,6.615,6.615,0,0,1-4.978,2.231,6.193,6.193,0,0,1-2.387-.457,7.277,7.277,0,0,1-2.2-1.494V83.2h-3.7V62.633Zm3.914,8.784a3.889,3.889,0,0,0-2.919,1.2,4.325,4.325,0,0,0-1.159,3.137,4.453,4.453,0,0,0,1.159,3.2,3.855,3.855,0,0,0,2.919,1.221,3.782,3.782,0,0,0,2.871-1.242,4.86,4.86,0,0,0,.021-6.294A3.8,3.8,0,0,0,529.791,71.417Z" fill="#30344f"/>
        <path id="Path_13" data-name="Path 13" d="M540.212,62.633h3.724V83.2h-3.724Z" fill="#30344f"/>
        <path id="Path_14" data-name="Path 14" d="M562.186,76.859H550.224a3.984,3.984,0,0,0,1.384,2.517,4.347,4.347,0,0,0,2.872.934,4.96,4.96,0,0,0,3.587-1.46l3.137,1.474a7.4,7.4,0,0,1-2.81,2.462,8.785,8.785,0,0,1-3.887.8,7.686,7.686,0,0,1-5.688-2.2,7.5,7.5,0,0,1-2.2-5.518,7.752,7.752,0,0,1,2.189-5.64,7.357,7.357,0,0,1,5.49-2.244,7.63,7.63,0,0,1,5.7,2.244,8.111,8.111,0,0,1,2.2,5.927Zm-3.723-2.933a3.733,3.733,0,0,0-1.456-2.018,4.214,4.214,0,0,0-2.521-.778,4.456,4.456,0,0,0-2.732.873,4.867,4.867,0,0,0-1.366,1.923Z" fill="#30344f"/>
        <path id="Path_15" data-name="Path 15" d="M574.285,70.435l-2.3,2.305a3.9,3.9,0,0,0-2.551-1.391,1.6,1.6,0,0,0-.982.266.8.8,0,0,0-.355.661.809.809,0,0,0,.226.552,4.172,4.172,0,0,0,1.111.689l1.364.682a8.055,8.055,0,0,1,2.96,2.169,4.517,4.517,0,0,1-.648,5.893,5.559,5.559,0,0,1-3.894,1.323,6.191,6.191,0,0,1-5.183-2.537l2.291-2.5a5.291,5.291,0,0,0,1.535,1.235,3.39,3.39,0,0,0,1.562.47A1.863,1.863,0,0,0,570.6,79.9a1.029,1.029,0,0,0,.45-.819q0-.858-1.623-1.677l-1.255-.628q-3.6-1.813-3.6-4.542a3.943,3.943,0,0,1,1.357-3.007,4.93,4.93,0,0,1,3.472-1.249,6.026,6.026,0,0,1,4.883,2.456Z" fill="#30344f"/>
      </g>
      <path id="Path_16" data-name="Path 16" d="M516.936,62.251a2.276,2.276,0,0,1,1.679.709,2.357,2.357,0,0,1,.7,1.719,2.327,2.327,0,0,1-.694,1.7,2.251,2.251,0,0,1-1.659.7,2.285,2.285,0,0,1-1.694-.716,2.393,2.393,0,0,1-.7-1.739,2.371,2.371,0,0,1,2.367-2.373Z" fill="#3574ff"/>
    </g>
  </g>
</svg>
